<?xml version="1.0" encoding="UTF-8"?>
<svg xmlns="http://www.w3.org/2000/svg" xmlns:xlink="http://www.w3.org/1999/xlink" width="30px" height="30px" viewBox="0 0 30 30" version="1.1">
<defs>
<radialGradient id="radial0" gradientUnits="userSpaceOnUse" cx="332.140015" cy="2511.810059" fx="332.140015" fy="2511.810059" r="3263.540039" gradientTransform="matrix(0.012,0,0,0.012,0,0)">
<stop offset="0.09" style="stop-color:rgb(98.039216%,56.078431%,12.941176%);stop-opacity:1;"/>
<stop offset="0.78" style="stop-color:rgb(84.705882%,17.647059%,49.411765%);stop-opacity:1;"/>
</radialGradient>
<radialGradient id="radial1" gradientUnits="userSpaceOnUse" cx="1516.140015" cy="2623.810059" fx="1516.140015" fy="2623.810059" r="2572.120117" gradientTransform="matrix(0.012,0,0,0.012,0,0)">
<stop offset="0.64" style="stop-color:rgb(54.901961%,22.745098%,66.666667%);stop-opacity:0;"/>
<stop offset="1" style="stop-color:rgb(54.901961%,22.745098%,66.666667%);stop-opacity:1;"/>
</radialGradient>
</defs>
<g id="surface1">
<path style=" stroke:none;fill-rule:nonzero;fill:url(#radial0);" d="M 10 15 C 10 12.238281 12.238281 10 15 10 C 17.761719 10 20 12.238281 20 15 C 20 17.761719 17.761719 20 15 20 C 12.238281 20 10 17.761719 10 15 M 7.296875 15 C 7.296875 19.253906 10.746094 22.703125 15 22.703125 C 19.253906 22.703125 22.703125 19.253906 22.703125 15 C 22.703125 10.746094 19.253906 7.296875 15 7.296875 C 10.746094 7.296875 7.296875 10.746094 7.296875 15 M 21.207031 6.992188 C 21.207031 7.988281 22.011719 8.792969 23.007812 8.792969 C 24 8.792969 24.808594 7.988281 24.808594 6.992188 C 24.808594 6 24.003906 5.195312 23.007812 5.191406 C 22.011719 5.195312 21.207031 6 21.207031 6.992188 M 8.941406 27.210938 C 7.476562 27.144531 6.683594 26.898438 6.15625 26.695312 C 5.453125 26.421875 4.953125 26.097656 4.429688 25.570312 C 3.902344 25.046875 3.578125 24.546875 3.308594 23.847656 C 3.101562 23.320312 2.859375 22.523438 2.792969 21.0625 C 2.71875 19.480469 2.703125 19.003906 2.703125 15 C 2.703125 10.996094 2.71875 10.519531 2.792969 8.9375 C 2.859375 7.476562 3.101562 6.683594 3.308594 6.152344 C 3.578125 5.453125 3.90625 4.953125 4.429688 4.425781 C 4.953125 3.902344 5.453125 3.578125 6.15625 3.304688 C 6.683594 3.097656 7.476562 2.855469 8.941406 2.789062 C 10.519531 2.714844 10.996094 2.703125 15 2.703125 C 19.003906 2.703125 19.480469 2.71875 21.0625 2.789062 C 22.523438 2.855469 23.316406 3.101562 23.847656 3.304688 C 24.546875 3.578125 25.046875 3.902344 25.574219 4.425781 C 26.097656 4.953125 26.421875 5.453125 26.695312 6.152344 C 26.902344 6.679688 27.144531 7.476562 27.210938 8.9375 C 27.285156 10.519531 27.296875 10.996094 27.296875 15 C 27.296875 19.003906 27.285156 19.480469 27.210938 21.0625 C 27.144531 22.523438 26.898438 23.320312 26.695312 23.847656 C 26.421875 24.546875 26.097656 25.046875 25.574219 25.570312 C 25.046875 26.097656 24.546875 26.421875 23.847656 26.695312 C 23.320312 26.898438 22.523438 27.144531 21.0625 27.210938 C 19.480469 27.28125 19.003906 27.296875 15 27.296875 C 10.996094 27.296875 10.519531 27.28125 8.941406 27.210938 M 8.816406 0.0898438 C 7.21875 0.164062 6.128906 0.417969 5.175781 0.789062 C 4.1875 1.171875 3.351562 1.683594 2.519531 2.519531 C 1.683594 3.351562 1.171875 4.1875 0.789062 5.175781 C 0.417969 6.128906 0.164062 7.21875 0.0898438 8.816406 C 0.015625 10.414062 0 10.925781 0 15 C 0 19.074219 0.015625 19.585938 0.0898438 21.183594 C 0.164062 22.78125 0.417969 23.871094 0.789062 24.824219 C 1.171875 25.8125 1.683594 26.648438 2.519531 27.480469 C 3.351562 28.316406 4.1875 28.828125 5.175781 29.210938 C 6.128906 29.582031 7.21875 29.835938 8.816406 29.910156 C 10.414062 29.980469 10.925781 30 15 30 C 19.074219 30 19.585938 29.984375 21.183594 29.910156 C 22.78125 29.835938 23.871094 29.582031 24.824219 29.210938 C 25.8125 28.828125 26.648438 28.316406 27.480469 27.480469 C 28.316406 26.648438 28.828125 25.8125 29.210938 24.824219 C 29.582031 23.871094 29.835938 22.78125 29.910156 21.183594 C 29.980469 19.582031 30 19.074219 30 15 C 30 10.925781 29.980469 10.414062 29.910156 8.816406 C 29.835938 7.21875 29.582031 6.128906 29.210938 5.175781 C 28.828125 4.1875 28.316406 3.351562 27.480469 2.519531 C 26.648438 1.683594 25.8125 1.171875 24.828125 0.789062 C 23.871094 0.417969 22.78125 0.164062 21.183594 0.0898438 C 19.585938 0.0195312 19.074219 0 15 0 C 10.925781 0 10.414062 0.015625 8.816406 0.0898438 "/>
<path style=" stroke:none;fill-rule:nonzero;fill:url(#radial1);" d="M 10 15 C 10 12.238281 12.238281 10 15 10 C 17.761719 10 20 12.238281 20 15 C 20 17.761719 17.761719 20 15 20 C 12.238281 20 10 17.761719 10 15 M 7.296875 15 C 7.296875 19.253906 10.746094 22.703125 15 22.703125 C 19.253906 22.703125 22.703125 19.253906 22.703125 15 C 22.703125 10.746094 19.253906 7.296875 15 7.296875 C 10.746094 7.296875 7.296875 10.746094 7.296875 15 M 21.207031 6.992188 C 21.207031 7.988281 22.011719 8.792969 23.007812 8.792969 C 24 8.792969 24.808594 7.988281 24.808594 6.992188 C 24.808594 6 24.003906 5.195312 23.007812 5.191406 C 22.011719 5.195312 21.207031 6 21.207031 6.992188 M 8.941406 27.210938 C 7.476562 27.144531 6.683594 26.898438 6.15625 26.695312 C 5.453125 26.421875 4.953125 26.097656 4.429688 25.570312 C 3.902344 25.046875 3.578125 24.546875 3.308594 23.847656 C 3.101562 23.320312 2.859375 22.523438 2.792969 21.0625 C 2.71875 19.480469 2.703125 19.003906 2.703125 15 C 2.703125 10.996094 2.71875 10.519531 2.792969 8.9375 C 2.859375 7.476562 3.101562 6.683594 3.308594 6.152344 C 3.578125 5.453125 3.90625 4.953125 4.429688 4.425781 C 4.953125 3.902344 5.453125 3.578125 6.15625 3.304688 C 6.683594 3.097656 7.476562 2.855469 8.941406 2.789062 C 10.519531 2.714844 10.996094 2.703125 15 2.703125 C 19.003906 2.703125 19.480469 2.71875 21.0625 2.789062 C 22.523438 2.855469 23.316406 3.101562 23.847656 3.304688 C 24.546875 3.578125 25.046875 3.902344 25.574219 4.425781 C 26.097656 4.953125 26.421875 5.453125 26.695312 6.152344 C 26.902344 6.679688 27.144531 7.476562 27.210938 8.9375 C 27.285156 10.519531 27.296875 10.996094 27.296875 15 C 27.296875 19.003906 27.285156 19.480469 27.210938 21.0625 C 27.144531 22.523438 26.898438 23.320312 26.695312 23.847656 C 26.421875 24.546875 26.097656 25.046875 25.574219 25.570312 C 25.046875 26.097656 24.546875 26.421875 23.847656 26.695312 C 23.320312 26.898438 22.523438 27.144531 21.0625 27.210938 C 19.480469 27.28125 19.003906 27.296875 15 27.296875 C 10.996094 27.296875 10.519531 27.28125 8.941406 27.210938 M 8.816406 0.0898438 C 7.21875 0.164062 6.128906 0.417969 5.175781 0.789062 C 4.1875 1.171875 3.351562 1.683594 2.519531 2.519531 C 1.683594 3.351562 1.171875 4.1875 0.789062 5.175781 C 0.417969 6.128906 0.164062 7.21875 0.0898438 8.816406 C 0.015625 10.414062 0 10.925781 0 15 C 0 19.074219 0.015625 19.585938 0.0898438 21.183594 C 0.164062 22.78125 0.417969 23.871094 0.789062 24.824219 C 1.171875 25.8125 1.683594 26.648438 2.519531 27.480469 C 3.351562 28.316406 4.1875 28.828125 5.175781 29.210938 C 6.128906 29.582031 7.21875 29.835938 8.816406 29.910156 C 10.414062 29.980469 10.925781 30 15 30 C 19.074219 30 19.585938 29.984375 21.183594 29.910156 C 22.78125 29.835938 23.871094 29.582031 24.824219 29.210938 C 25.8125 28.828125 26.648438 28.316406 27.480469 27.480469 C 28.316406 26.648438 28.828125 25.8125 29.210938 24.824219 C 29.582031 23.871094 29.835938 22.78125 29.910156 21.183594 C 29.980469 19.582031 30 19.074219 30 15 C 30 10.925781 29.980469 10.414062 29.910156 8.816406 C 29.835938 7.21875 29.582031 6.128906 29.210938 5.175781 C 28.828125 4.1875 28.316406 3.351562 27.480469 2.519531 C 26.648438 1.683594 25.8125 1.171875 24.828125 0.789062 C 23.871094 0.417969 22.78125 0.164062 21.183594 0.0898438 C 19.585938 0.0195312 19.074219 0 15 0 C 10.925781 0 10.414062 0.015625 8.816406 0.0898438 "/>
</g>
</svg>
