<svg width="24" height="22" viewBox="0 0 24 22" fill="none" xmlns="http://www.w3.org/2000/svg">
<g clip-path="url(#clip0_439_492)">
<path d="M11.9066 11.4889L11.9065 11.4888L2.0125 5.09434V4.35417C2.0125 4.31438 2.02899 4.27551 2.05951 4.24632C2.09015 4.21702 2.13238 4.2 2.17708 4.2H21.8229C21.8676 4.2 21.9099 4.21702 21.9405 4.24632C21.971 4.27551 21.9875 4.31438 21.9875 4.35417V5.09434L12.0935 11.4888L12.0934 11.4889C12.0661 11.5065 12.0336 11.5161 12 11.5161C11.9664 11.5161 11.9339 11.5065 11.9066 11.4889ZM21.8229 2.675H2.17708C1.21309 2.675 0.425 3.42414 0.425 4.35417V17.1875C0.425 17.6339 0.610442 18.0614 0.939365 18.376C1.26817 18.6905 1.71345 18.8667 2.17708 18.8667H21.8229C22.2865 18.8667 22.7318 18.6905 23.0606 18.376C23.3896 18.0614 23.575 17.6339 23.575 17.1875V4.35417C23.575 3.42414 22.7869 2.675 21.8229 2.675ZM2.0125 17.1875V6.93211L11.0201 12.7542C11.6122 13.1369 12.3878 13.1369 12.9799 12.7542L21.9875 6.93211V17.1875C21.9875 17.2273 21.971 17.2662 21.9405 17.2953C21.9099 17.3246 21.8676 17.3417 21.8229 17.3417H2.17708C2.08308 17.3417 2.0125 17.2695 2.0125 17.1875Z" fill="white" stroke="white" stroke-width="0.15"/>
</g>
<defs>
<clipPath id="clip0_439_492">
<rect width="23" height="22" fill="white" transform="translate(0.5)"/>
</clipPath>
</defs>
</svg>
