<?xml version="1.0" encoding="iso-8859-1"?>
<!-- Uploaded to: SVG Repo, www.svgrepo.com, Generator: SVG Repo Mixer Tools -->
<svg fill="#ffffff" version="1.1" id="Layer_1" xmlns="http://www.w3.org/2000/svg" xmlns:xlink="http://www.w3.org/1999/xlink" 
	 viewBox="0 0 496 496" xml:space="preserve">
<g>
	<g>
		<g>
			<path d="M471.592,344c-1.904-22.928-11.856-43.584-27.08-59.12C446.784,272.736,448,260.352,448,248c0-110.28-89.72-200-200-200
				c-9.264,0-18.696,0.848-28.112,2.184L182.224,12.52L167.28,27.464c-4.904-2.504-10.016-4.624-15.28-6.32V0H88v21.144
				c-5.264,1.696-10.376,3.816-15.28,6.32L57.776,12.52L12.52,57.776L27.464,72.72c-2.512,4.904-4.624,10.016-6.32,15.28H0v64
				h21.144c1.704,5.264,3.816,10.376,6.328,15.28l-14.944,14.944l37.664,37.664C48.848,229.32,48,238.752,48,248
				c0,110.28,89.72,200,200,200c24.848,0,49.016-4.536,72-13.432V448h-16v16h16v32h112v-32h16v-16h-16v-18.08
				c22.944-16.496,37.2-41.984,39.52-69.92H496v-16H471.592z M35.152,182.224l12.256-12.264l-3.152-5.336
				c-4.16-7.04-7.304-14.648-9.36-22.624l-1.552-6H16v-32h17.344l1.552-6c2.056-7.976,5.2-15.584,9.36-22.624l3.152-5.336
				L35.152,57.776l22.624-22.632L70.04,47.408l5.344-3.16c7.032-4.152,14.64-7.304,22.616-9.36l6-1.544V16h32v17.344l6,1.544
				c7.976,2.056,15.584,5.208,22.616,9.36l5.344,3.16l12.264-12.264l22.624,22.632L192.592,70.04l3.152,5.336
				c4.16,7.04,7.304,14.648,9.36,22.624l1.552,6H224v32h-17.344l-1.552,6c-2.056,7.976-5.2,15.584-9.36,22.624l-3.152,5.336
				l12.256,12.264l-22.624,22.632l-12.264-12.264l-5.344,3.16c-7.032,4.152-14.64,7.304-22.616,9.36l-6,1.544V224h-32v-17.344
				l-6-1.544c-7.976-2.056-15.584-5.208-22.616-9.36l-5.344-3.16l-12.264,12.264L35.152,182.224z M248,432
				c-101.464,0-184-82.544-184-184c0-9.592,0.88-19.4,2.448-29.192l6.272-6.272c4.904,2.504,10.016,4.624,15.28,6.32V240h64v-21.144
				c5.264-1.696,10.376-3.816,15.28-6.32l14.944,14.944l45.248-45.256l-14.944-14.944c2.512-4.904,4.624-10.016,6.328-15.28H240V88
				h-21.144c-1.704-5.264-3.816-10.376-6.328-15.28l6.272-6.272C228.584,64.88,238.392,64,248,64c101.464,0,184,82.544,184,184
				c0,8.312-0.624,16.632-1.744,24.88C414.808,262.256,396.128,256,376,256c-50.24,0-91.504,38.808-95.592,88H256v16h24.48
				c1.952,23.472,12.352,45.16,29.256,61.288C289.952,428.36,269.248,432,248,432z M416,480h-80v-16h80V480z M419.624,419
				L416,421.368V448h-32v-65.136c13.768-3.576,24-16,24-30.864c0-17.648-14.352-32-32-32s-32,14.352-32,32
				c0,14.864,10.232,27.288,24,30.864V448h-32v-26.632L332.376,419C309.592,404.136,296,379.088,296,352c0-44.112,35.888-80,80-80
				s80,35.888,80,80C456,379.088,442.408,404.136,419.624,419z M376,368c-8.824,0-16-7.176-16-16c0-8.824,7.176-16,16-16
				c8.824,0,16,7.176,16,16C392,360.824,384.824,368,376,368z"/>
			<rect x="368" y="288" width="9" height="9"/>
			
				<rect x="328.427" y="304.382" transform="matrix(-0.7074 -0.7069 0.7069 -0.7074 353.5919 771.1537)" width="9" height="9"/>
			<rect x="312" y="344" width="9" height="9"/>
			
				<rect x="328.428" y="383.615" transform="matrix(-0.7069 -0.7074 0.7074 -0.7069 297.2219 906.4054)" width="9" height="9"/>
			
				<rect x="407.628" y="383.622" transform="matrix(-0.7074 -0.7069 0.7069 -0.7074 432.8036 962.4294)" width="9" height="9"/>
			<rect x="424" y="344" width="16" height="16"/>
			
				<rect x="407.627" y="304.413" transform="matrix(0.7069 0.7074 -0.7074 0.7069 342.8278 -202.4153)" width="9" height="9"/>
			<path d="M120,184c35.288,0,64-28.712,64-64c0-35.288-28.712-64-64-64c-35.288,0-64,28.712-64,64C56,155.288,84.712,184,120,184z
				 M72.72,112c1.232-7.272,4.08-13.992,8.192-19.768l10.8,10.792l11.312-11.312l-10.8-10.792c5.784-4.12,12.504-6.968,19.776-8.2
				V88h16V72.72c7.272,1.232,13.992,4.08,19.768,8.2l-10.8,10.792l11.312,11.312l10.8-10.792c4.12,5.776,6.968,12.496,8.2,19.768
				H152v16h15.28c-1.232,7.272-4.08,13.992-8.192,19.768l-10.8-10.792l-11.312,11.312l10.8,10.792
				c-5.784,4.12-12.504,6.968-19.776,8.2V152h-16v15.28c-7.272-1.232-13.992-4.08-19.768-8.2l10.8-10.792L91.72,136.976
				l-10.8,10.792c-4.12-5.776-6.968-12.496-8.2-19.768H88v-16H72.72z"/>
			<path d="M364.432,219.712l-33.904-11.304l-5.064,15.176l54.088,18.024l27.304-45.504l-13.72-8.232l-14.288,23.816
				c-15.232-55.048-63.912-95.656-122.36-99.288l-0.984,15.968C308.392,131.664,352.224,169.256,364.432,219.712z"/>
			<path d="M132.496,279.192l31.928,15.968l7.16-14.312l-54.624-27.312l-27.816,46.352l13.72,8.232l14.4-24
				c15.16,55.16,63.816,95.864,122.248,99.48l0.984-15.968C188.72,364.416,145.648,328.192,132.496,279.192z"/>
		</g>
	</g>
</g>
</svg>